<svg width="12" height="15" viewBox="0 0 12 15" fill="none" xmlns="http://www.w3.org/2000/svg">
<path d="M1.66899 2.58471L1.66699 4.00004V11.0027C1.66699 11.5773 1.89527 12.1284 2.30159 12.5348C2.70792 12.9411 3.25902 13.1694 3.83366 13.1694H9.57766C9.47423 13.4619 9.28265 13.7152 9.02928 13.8943C8.77592 14.0733 8.47326 14.1695 8.16299 14.1694H3.83366C2.99381 14.1694 2.18835 13.8357 1.59449 13.2419C1.00062 12.648 0.666992 11.8426 0.666992 11.0027V4.00004C0.666992 3.34671 1.08499 2.79004 1.66899 2.58471ZM9.83366 0.833374C10.0306 0.833374 10.2257 0.872173 10.4077 0.947555C10.5897 1.02294 10.755 1.13343 10.8943 1.27271C11.0336 1.412 11.1441 1.57736 11.2195 1.75935C11.2949 1.94134 11.3337 2.13639 11.3337 2.33337V11C11.3337 11.197 11.2949 11.3921 11.2195 11.5741C11.1441 11.7561 11.0336 11.9214 10.8943 12.0607C10.755 12.2 10.5897 12.3105 10.4077 12.3859C10.2257 12.4612 10.0306 12.5 9.83366 12.5H3.83366C3.43583 12.5 3.0543 12.342 2.773 12.0607C2.49169 11.7794 2.33366 11.3979 2.33366 11V2.33337C2.33366 1.93555 2.49169 1.55402 2.773 1.27271C3.0543 0.991409 3.43583 0.833374 3.83366 0.833374H9.83366ZM9.83366 1.83337H3.83366C3.70105 1.83337 3.57387 1.88605 3.48011 1.97982C3.38634 2.07359 3.33366 2.20077 3.33366 2.33337V11C3.33366 11.276 3.55766 11.5 3.83366 11.5H9.83366C9.96627 11.5 10.0934 11.4474 10.1872 11.3536C10.281 11.2598 10.3337 11.1326 10.3337 11V2.33337C10.3337 2.20077 10.281 2.07359 10.1872 1.97982C10.0934 1.88605 9.96627 1.83337 9.83366 1.83337Z" fill="#0C6390"/>
</svg>
