<svg width="16" height="17" viewBox="0 0 16 17" fill="none" xmlns="http://www.w3.org/2000/svg">
<path d="M2 14.5V13.1667H3.33333V2.5H10V3.16667H12.6667V13.1667H14V14.5H11.3333V4.5H10V14.5H2ZM7.33333 9.16667C7.52222 9.16667 7.68067 9.10267 7.80867 8.97467C7.93667 8.84667 8.00044 8.68844 8 8.5C7.99956 8.31156 7.93556 8.15333 7.808 8.02533C7.68044 7.89733 7.52222 7.83333 7.33333 7.83333C7.14444 7.83333 6.98622 7.89733 6.85867 8.02533C6.73111 8.15333 6.66711 8.31156 6.66667 8.5C6.66622 8.68844 6.73022 8.84689 6.85867 8.97533C6.98711 9.10378 7.14533 9.16756 7.33333 9.16667Z" fill="#0C6390"/>
</svg>
